# xmcd
#
# Track frame offsets:
#	150
#	15646
#	29896
#	38747
#	47831
#	67409
#	84216
#	105711
#	124060
#	136694
#
# Disc length: 2080 seconds
# Revision: 1
# Processed by: cddbd v1.5.2PL0 Copyright (c) Steve Scherf et al.
# Submitted via: dBpowerAMP V12.0
#
DISCID=86081e0a
DTITLE=Garth Brooks - The Anthology Part 1, The First Five Years 1992
DYEAR=1992
DGENRE=Miscellaneous
TTITLE0=Sometimes You Need The Rain (Demo)
TTITLE1=Somewhere Other Than The Night (Master)
TTITLE2=Mr. Right (Demo)
TTITLE3=Mr. Right (Master)
TTITLE4=Dixie Chicken (Master)
TTITLE5=That Summer (First Take)
TTITLE6=That Summer (Master)
TTITLE7=Night Rider's Lament (Master)
TTITLE8=Face To Face (Tony Arata Day-Write)
TTITLE9=Face To Face (Master)
EXTD=
EXTT0=
EXTT1=
EXTT2=
EXTT3=
EXTT4=
EXTT5=
EXTT6=
EXTT7=
EXTT8=
EXTT9=
PLAYORDER=
